<?xml version="1.0" standalone="no"?>
<!DOCTYPE svg PUBLIC "-//W3C//DTD SVG 20010904//EN"
 "http://www.w3.org/TR/2001/REC-SVG-20010904/DTD/svg10.dtd">
<svg version="1.0" xmlns="http://www.w3.org/2000/svg"
 width="1248.000000pt" height="832.000000pt" viewBox="0 0 1248.000000 832.000000"
 preserveAspectRatio="xMidYMid meet">

<g transform="translate(0.000000,832.000000) scale(0.100000,-0.100000)"
fill="#000000" stroke="none">
<path d="M37 8299 c3 -10 0 -19 -6 -19 -6 0 -11 -9 -11 -20 0 -11 5 -20 10
-20 6 0 10 -4 10 -10 0 -14 -27 -12 -33 3 -3 6 -6 -1339 -6 -2990 l-1 -3001
95 5 95 6 40 -42 c71 -74 84 -171 50 -376 -13 -84 -40 -361 -45 -475 -6 -130
-14 -244 -21 -312 -5 -47 -2 -66 16 -104 22 -45 69 -84 101 -84 9 0 35 -17 56
-39 32 -30 42 -48 48 -87 4 -27 10 -53 15 -59 26 -33 49 -391 29 -465 -7 -25
-16 -50 -21 -57 -6 -7 -7 -17 -3 -23 5 -8 -28 -15 -38 -7 -2 1 -10 -3 -18 -10
-10 -8 -36 -9 -84 -3 -44 4 -75 3 -83 -3 -9 -7 -16 -7 -24 1 -7 7 -27 12 -46
12 -18 0 -43 5 -55 11 -13 8 -22 8 -24 2 -2 -6 -19 -7 -43 -3 l-40 7 0 -68 0
-69 2308 0 2308 0 13 223 c22 403 73 884 131 1264 50 323 68 417 79 421 6 2 8
8 5 13 -3 6 2 21 11 35 13 20 15 37 10 74 -9 68 12 169 41 198 28 26 32 62 8
62 -24 0 -14 67 45 301 68 269 179 834 167 846 -2 2 -14 -11 -27 -29 -13 -18
-29 -39 -36 -46 -7 -7 -16 -24 -19 -37 -7 -28 -26 -37 -57 -26 -12 4 -28 6
-35 3 -11 -3 -11 0 -1 16 7 11 19 18 26 15 19 -7 16 14 -3 25 -14 8 -11 13 16
34 110 86 -114 15 -416 -133 -80 -39 -148 -68 -150 -66 -7 7 166 97 271 141
50 21 101 44 115 51 14 7 77 29 140 49 187 60 193 64 230 155 31 79 74 151 89
151 4 0 11 -24 14 -54 4 -39 0 -69 -15 -112 -26 -75 -34 -212 -13 -221 8 -3
15 -12 15 -20 0 -26 67 -234 118 -368 81 -211 84 -217 145 -262 30 -23 90 -81
133 -129 44 -48 92 -99 109 -113 75 -66 163 -153 190 -190 17 -22 33 -41 36
-41 11 0 87 132 104 180 9 25 18 70 20 101 7 101 23 145 71 188 23 22 55 43
71 46 56 12 279 88 334 114 71 33 212 182 341 359 50 70 135 181 187 247 147
183 243 340 247 403 2 19 8 40 14 47 13 15 34 87 55 180 14 64 32 131 42 155
3 8 6 18 5 22 -1 3 5 12 13 18 12 10 15 9 16 -6 1 -11 1 -23 0 -28 -4 -18 9
-56 19 -56 20 0 66 -49 147 -158 105 -141 277 -316 368 -374 45 -29 119 -62
205 -91 251 -85 474 -165 620 -222 142 -56 525 -171 647 -195 74 -15 93 -9 93
25 0 14 14 63 31 108 18 45 43 111 56 147 45 119 46 122 150 280 48 74 70 92
100 86 22 -5 34 -1 50 16 11 13 22 29 25 37 2 8 40 42 83 76 44 34 107 93 140
132 74 88 105 102 151 71 31 -21 44 -51 44 -103 0 -18 -43 -84 -85 -131 -5 -6
-21 -30 -35 -53 -49 -82 -95 -150 -133 -194 -24 -29 -44 -68 -56 -109 -10 -34
-53 -135 -96 -223 -43 -88 -84 -178 -91 -199 -8 -22 -19 -45 -24 -51 -15 -18
17 -41 80 -55 93 -21 243 -71 279 -92 18 -12 52 -22 75 -23 54 -2 94 -30 135
-94 34 -52 86 -204 77 -224 -2 -7 -5 -3 -5 8 -1 17 -3 17 -11 5 -7 -11 -10 -7
-10 18 0 18 -4 31 -9 28 -5 -3 -11 3 -14 14 -3 10 0 21 7 23 8 3 7 12 -4 32
-16 31 -46 41 -54 19 -7 -19 -23 -17 -48 6 -24 22 -48 26 -48 9 0 -5 -5 -7
-11 -3 -8 5 -8 9 1 14 9 6 9 9 -1 16 -7 4 -14 3 -17 -4 -2 -8 -8 -7 -19 4 -11
10 -18 12 -23 5 -4 -8 -17 -6 -39 5 -18 9 -28 19 -23 23 6 3 14 19 17 34 7 24
5 27 -18 25 -18 -2 -28 -10 -32 -25 -3 -13 -9 -23 -14 -23 -16 0 -51 38 -51
56 0 16 -2 16 -16 -4 -18 -27 -32 -28 -50 -4 -13 16 -13 16 -14 -3 0 -15 -2
-17 -12 -6 -11 10 -9 15 6 27 19 14 19 14 -2 14 -12 0 -22 5 -22 11 0 8 -5 8
-15 -1 -8 -7 -15 -19 -15 -26 0 -8 -5 -14 -11 -14 -6 0 -8 9 -4 20 9 27 -9 25
-24 -2 -11 -22 -11 -22 -8 4 4 24 1 27 -21 25 -14 -1 -27 -9 -30 -19 -6 -24
-22 -23 -22 1 0 24 -25 34 -41 15 -7 -9 -16 -11 -23 -6 -23 18 -55 20 -61 4
-4 -12 -8 -13 -18 -3 -9 9 -9 14 3 21 8 5 10 10 4 10 -6 0 -17 -6 -24 -14 -17
-22 -56 -5 -52 23 2 14 -2 21 -12 21 -9 0 -16 5 -16 12 0 6 -3 8 -6 5 -4 -4
-1 -14 6 -22 21 -25 -3 -41 -31 -21 -29 20 -40 20 -33 1 4 -8 1 -15 -5 -15 -6
0 -11 8 -11 18 0 31 -12 33 -37 6 -27 -30 -43 -24 -43 17 0 34 -15 38 -25 6
l-7 -22 -8 25 c-6 18 -8 20 -9 7 -1 -17 -2 -17 -17 -2 -9 9 -24 13 -35 10 -14
-5 -19 -1 -19 11 0 13 -3 14 -15 4 -19 -16 -19 -30 0 -30 16 0 20 -16 6 -24
-8 -6 -71 78 -71 94 0 4 -11 5 -25 2 -17 -3 -27 1 -31 12 -6 15 -8 15 -20 -1
-12 -17 -13 -17 -14 -1 0 10 -9 22 -19 28 -27 14 -34 13 -27 -5 3 -8 1 -15 -4
-15 -6 0 -10 5 -10 10 0 6 -3 9 -7 9 -22 -4 -32 3 -27 16 6 15 -7 21 -20 8
-17 -17 -47 -9 -52 14 -4 14 -12 22 -19 19 -17 -6 -55 27 -55 48 0 12 -6 15
-24 10 -18 -4 -28 0 -40 17 -8 12 -29 28 -45 35 -26 11 -32 11 -39 -3 -8 -14
-11 -13 -23 3 -22 29 -56 46 -62 31 -3 -7 -6 1 -6 17 -1 25 -3 27 -18 15 -13
-11 -17 -11 -20 -1 -3 6 -11 12 -19 12 -8 0 -14 8 -14 18 0 22 -42 42 -64 30
-11 -6 -16 -5 -16 5 0 16 -27 30 -41 21 -5 -3 -9 3 -9 13 0 15 -2 16 -10 3 -7
-11 -12 -12 -21 -3 -6 6 -18 9 -25 6 -9 -3 -14 2 -14 17 0 17 -4 21 -20 17
-14 -3 -20 0 -20 10 0 12 -3 13 -14 4 -10 -9 -21 -5 -46 19 -40 37 -62 50 -88
50 -11 0 -25 6 -31 14 -12 14 -60 30 -67 23 -3 -2 10 -37 26 -78 65 -154 80
-209 60 -209 -5 0 -10 8 -10 19 0 24 -25 47 -35 31 -7 -11 -55 33 -55 51 0 11
-11 11 -29 0 -11 -7 -9 -12 10 -22 13 -7 27 -12 32 -11 4 1 7 -7 7 -18 0 -21
-15 -27 -25 -10 -12 19 -22 1 -17 -30 4 -27 2 -30 -22 -30 -14 0 -26 6 -26 13
-1 7 -6 5 -14 -6 -14 -18 -66 -24 -66 -7 0 12 -53 1 -58 -12 -2 -4 -10 -14
-17 -21 -14 -14 -9 -67 6 -67 5 0 9 -7 9 -15 0 -9 -6 -12 -15 -9 -8 4 -15 1
-15 -5 0 -11 -74 -10 -86 2 -4 4 -2 7 5 7 8 0 11 8 8 19 -3 14 -1 18 9 14 8
-3 12 -9 9 -13 -9 -14 13 -22 31 -12 10 6 13 12 6 16 -5 3 -8 15 -5 27 4 12 0
25 -8 31 -11 7 -11 11 -1 15 17 7 15 30 -4 37 -22 8 -22 9 -16 -20 5 -28 -10
-44 -42 -44 -17 0 -17 2 -3 23 8 12 20 21 26 20 6 -2 8 3 5 10 -5 14 -74 20
-74 6 0 -5 5 -9 10 -9 6 0 10 -4 10 -10 0 -21 -20 -9 -26 15 -3 14 -10 25 -14
25 -13 0 -21 35 -14 54 3 9 12 16 20 16 17 0 18 -12 2 -28 -15 -15 -3 -16 22
-2 15 8 17 16 10 46 -10 46 -16 51 -40 36 -24 -15 -50 -16 -50 -2 0 6 5 10 10
10 6 0 10 7 10 15 0 8 -7 15 -15 15 -20 0 -19 19 0 27 14 5 14 8 -1 24 -9 10
-21 16 -26 13 -6 -4 -5 4 2 16 9 17 9 21 0 15 -9 -5 -10 -1 -5 14 4 15 1 23
-12 29 -14 5 -8 8 22 13 34 5 37 7 18 14 -13 4 -23 11 -23 16 0 5 -7 9 -16 9
-12 0 -15 6 -11 22 4 14 0 26 -11 34 -9 7 -13 16 -9 20 4 5 12 2 17 -6 8 -12
10 -12 15 2 4 10 4 22 0 28 -3 5 -1 10 4 10 6 0 11 -11 11 -25 0 -14 5 -25 10
-25 6 0 10 18 10 40 0 25 5 40 13 41 6 0 2 4 -10 9 -25 10 -31 35 -10 43 8 4
7 6 -3 6 -22 1 -52 39 -48 60 2 10 -4 26 -12 36 -11 13 -12 19 -3 22 8 3 8 11
-2 30 -7 14 -11 40 -9 59 3 28 -1 40 -26 64 -17 17 -32 30 -34 30 -2 0 8 -34
22 -76 25 -73 25 -78 14 -172 -23 -183 -41 -252 -187 -727 -25 -82 -71 -242
-100 -355 -30 -113 -59 -221 -65 -240 -6 -19 -26 -102 -44 -185 -30 -136 -73
-316 -186 -795 -22 -91 -55 -235 -74 -320 -19 -85 -56 -240 -81 -345 -85 -351
-205 -889 -205 -922 0 -11 475 -13 2915 -13 l2915 0 0 1515 c0 1003 -3 1515
-10 1515 -5 0 -10 7 -10 15 0 8 5 15 10 15 6 0 10 10 10 23 -1 20 -2 20 -11 5
-15 -26 -32 -22 -27 6 4 18 0 26 -16 30 -11 3 -23 0 -27 -6 -4 -7 -8 -6 -11 3
-4 11 -8 12 -20 1 -9 -7 -23 -10 -32 -6 -12 5 -16 0 -16 -21 0 -28 0 -28 -21
-9 -17 16 -22 16 -29 4 -6 -8 -10 -18 -10 -22 0 -5 -22 -8 -49 -8 -50 0 -67
-13 -55 -45 9 -21 -10 -19 -31 5 -18 19 -17 20 2 20 22 0 41 42 23 48 -6 2
-10 10 -10 18 0 8 -5 14 -10 14 -6 0 -8 -10 -5 -23 4 -15 -1 -32 -15 -49 -17
-23 -27 -27 -63 -24 -23 1 -50 6 -60 10 -17 8 -17 9 0 22 11 8 13 13 6 14 -7
0 -13 9 -13 20 0 11 -4 20 -10 20 -5 0 -10 -4 -10 -9 0 -10 -70 -12 -102 -4
-10 2 -18 13 -18 23 0 25 -47 55 -64 41 -17 -14 -38 29 -25 50 14 22 11 28
-11 22 -11 -3 -20 -1 -20 4 0 5 -10 19 -21 32 -15 16 -24 20 -32 12 -6 -6 -18
-11 -26 -11 -11 1 -8 8 11 24 l27 24 -30 6 c-34 7 -39 26 -6 26 22 1 22 1 -3
15 -33 19 -38 18 -43 -2 -3 -13 -5 -12 -6 5 0 13 -6 20 -11 17 -16 -10 -25 26
-9 36 12 8 12 11 -1 19 -8 5 -10 10 -5 10 6 0 2 5 -8 11 -13 8 -15 14 -7 30 9
15 7 19 -5 19 -14 0 -14 3 1 25 16 24 15 25 -5 25 -12 0 -21 6 -21 15 0 8 5
15 11 15 7 0 8 7 3 18 -4 9 -8 62 -10 117 -3 104 -5 122 -17 142 -4 6 -3 14 3
18 7 4 6 13 -1 27 -9 16 -8 22 2 29 11 6 11 13 3 26 -7 11 -12 103 -14 248 -3
221 -6 320 -10 320 -1 0 -3 38 -5 85 -8 199 -15 363 -21 485 -7 130 -10 379
-6 465 1 25 3 122 3 215 2 158 9 690 11 815 2 92 -11 441 -18 479 -4 20 -11
41 -16 48 -16 20 -91 26 -154 13 -54 -11 -163 -55 -174 -71 -11 -15 -183 -48
-285 -54 -60 -4 -112 -8 -116 -10 -12 -8 -279 -19 -459 -19 -164 -1 -284 6
-331 20 -8 2 -91 6 -185 9 -245 6 -467 16 -475 20 -3 2 -86 7 -185 10 -98 3
-199 7 -224 9 -25 2 -153 7 -285 11 -132 4 -243 9 -247 11 -5 4 -163 7 -674
14 -5 0 -24 14 -42 31 -23 23 -34 46 -44 92 -7 34 -14 54 -16 44 -5 -25 -19
-13 -41 39 -46 102 -226 247 -413 331 -65 29 -141 71 -170 94 -67 52 -239 136
-298 145 -25 3 -70 12 -100 19 -86 21 -326 30 -570 21 -91 -3 -197 -34 -335
-95 -71 -32 -156 -67 -187 -76 -31 -10 -56 -23 -55 -28 1 -5 -22 -22 -51 -37
-29 -15 -87 -54 -129 -86 -43 -32 -107 -73 -142 -92 -36 -18 -71 -42 -79 -53
-7 -10 -20 -19 -28 -19 -8 0 -12 -5 -9 -11 8 -12 -14 -69 -26 -69 -5 0 -14
-11 -19 -25 -5 -14 -17 -28 -26 -32 -11 -4 -12 -8 -4 -13 15 -10 -4 -50 -24
-50 -8 0 -17 -7 -20 -16 -6 -15 -8 -15 -30 0 -14 8 -26 12 -28 7 -4 -10 -98
-23 -98 -13 0 4 -43 7 -95 7 -61 0 -96 4 -99 11 -4 11 -101 26 -183 28 -24 1
-43 4 -43 8 0 5 -15 8 -33 8 -19 0 -37 3 -41 7 -23 24 -145 43 -196 31 -24 -5
-37 -21 -35 -43 0 -11 -4 -26 -9 -34 -8 -10 -8 -15 1 -18 8 -3 9 -13 2 -35 -4
-17 -6 -35 -3 -39 3 -5 0 -9 -6 -9 -6 0 -8 -5 -3 -12 10 -18 10 -397 -1 -391
-4 3 -6 -3 -2 -13 3 -11 8 -113 10 -228 3 -117 9 -213 15 -219 5 -5 7 -15 5
-22 -3 -7 -1 -16 5 -20 6 -3 11 -13 11 -22 0 -22 39 -103 50 -103 11 0 30 -82
30 -130 0 -40 -20 -88 -47 -118 -7 -7 -13 -28 -13 -47 0 -18 -4 -35 -10 -37
-5 -2 -11 -132 -14 -318 -2 -173 -5 -317 -6 -320 -1 -3 -1 -9 0 -15 2 -11 0
-320 -3 -427 -1 -38 -5 -68 -9 -68 -5 0 -8 -6 -8 -13 0 -23 -91 -49 -136 -39
-55 11 -274 -3 -332 -22 -80 -27 -115 -77 -106 -153 8 -65 8 -71 -12 -182 -21
-124 -21 -189 0 -280 12 -52 27 -86 50 -115 48 -59 56 -79 56 -134 0 -63 -14
-78 -115 -129 -162 -81 -188 -97 -211 -133 -24 -37 -49 -139 -84 -350 -23
-138 -60 -301 -90 -399 -11 -35 -20 -82 -20 -105 0 -57 18 -116 35 -116 8 0
15 3 15 8 0 4 12 21 26 37 l25 30 -27 -50 c-14 -27 -29 -54 -34 -60 -4 -5 -18
-41 -30 -80 -28 -83 -39 -100 -54 -85 -5 5 -42 10 -80 10 -39 0 -108 5 -152
11 -144 20 -156 7 -144 -163 18 -247 27 -415 35 -703 3 -110 8 -229 11 -265 2
-36 6 -103 9 -150 11 -214 19 -299 25 -295 4 3 13 25 19 49 6 25 16 48 21 51
7 4 9 -2 5 -17 -3 -12 -9 -43 -14 -68 -39 -195 -65 -310 -70 -310 -9 1 -64 80
-78 113 -11 24 -37 216 -35 257 0 8 -4 80 -8 160 -5 80 -10 195 -11 255 -3
127 -22 303 -43 390 -15 61 -41 198 -51 270 -4 22 -15 86 -26 143 -27 147 -25
215 9 276 17 32 41 58 67 72 22 13 38 29 37 36 -7 23 -5 181 2 268 l7 85 -35
25 c-20 14 -43 41 -52 60 -9 19 -20 42 -24 51 -5 9 -12 36 -15 60 -12 85 -37
185 -77 307 -38 116 -40 129 -35 215 5 105 -14 307 -33 352 -14 33 -15 214 0
229 4 4 0 36 -10 71 -10 35 -16 66 -13 68 2 3 6 20 8 38 3 19 8 35 13 37 14 4
5 84 -14 127 -21 48 -20 45 -29 72 -4 12 -13 24 -21 27 -8 3 -14 10 -14 16 0
6 6 8 13 5 6 -4 3 1 -8 10 -13 10 -16 18 -9 23 10 6 18 72 8 72 -14 0 -52 -45
-47 -56 3 -9 -6 -18 -26 -25 -17 -6 -31 -15 -31 -20 0 -5 -15 -9 -33 -7 -18 1
-38 -1 -44 -5 -17 -11 -65 33 -60 54 3 11 2 21 -2 24 -13 7 -13 135 -1 135 6
0 8 5 4 12 -10 16 -13 378 -3 384 5 2 4 15 0 27 -5 12 -9 109 -10 215 -1 106
-4 199 -7 207 -3 8 -3 19 1 26 4 6 9 57 11 113 1 55 5 169 8 251 9 225 12 565
4 565 -3 0 -4 8 -1 19 2 10 -1 23 -9 29 -68 54 -109 100 -123 136 -12 31 -29
51 -67 75 -75 49 -127 99 -150 145 -17 33 -20 51 -15 106 10 108 43 177 99
206 17 9 66 25 108 35 94 22 128 37 135 59 3 9 22 26 43 36 20 10 39 22 42 25
7 9 68 27 117 34 29 5 50 15 63 32 19 24 19 27 4 44 -20 23 -52 29 -174 33
-52 2 -138 7 -190 10 -52 3 -158 8 -235 11 -235 9 -457 28 -580 50 -44 8 -89
14 -100 14 -11 -1 -47 4 -79 10 -32 6 -63 8 -67 5 -5 -3 -9 2 -9 11 0 13 -4
14 -20 5 -23 -12 -40 -6 -40 15 0 8 -8 14 -17 14 -74 3 -160 14 -175 22 -10 6
-23 7 -29 4 -5 -4 -17 -1 -26 6 -8 7 -32 12 -52 11 -32 -2 -34 -1 -18 11 19
16 22 27 6 27 -14 0 -39 -25 -39 -39 0 -21 -16 -11 -17 10 -2 25 11 40 57 65
27 13 31 19 18 22 -41 8 -9 32 42 32 36 0 60 9 60 22 0 6 -6 6 -15 -2 -9 -7
-23 -9 -37 -4 -13 4 -26 7 -30 6 -5 -1 -8 5 -8 14 0 8 4 13 9 9 5 -3 12 -1 15
3 3 5 17 7 30 5 22 -5 25 -2 23 23 -1 21 2 28 13 25 40 -10 45 -6 46 34 0 48
11 75 30 75 16 0 18 9 4 30 -8 13 -10 12 -15 -1 -7 -19 -35 -21 -35 -2 0 7 6
13 14 13 8 0 17 7 20 16 5 13 2 15 -16 11 -13 -4 -29 0 -39 9 -14 13 -18 13
-29 -1 -13 -16 -31 -20 -29 -7 4 24 -2 34 -14 24 -10 -8 -16 -6 -25 9 -7 10
-8 19 -3 19 5 0 11 -3 13 -7 2 -5 13 2 26 15 l22 23 -36 -7 c-25 -5 -35 -3
-30 4 3 5 4 17 1 24 -5 13 -25 17 -95 20 -8 0 -21 6 -29 12 -12 9 -13 8 -8 -6
3 -10 2 -20 -2 -23 -5 -3 -11 2 -15 10 -6 17 -42 20 -51 5 -9 -15 -25 -12 -25
4 0 8 -9 18 -20 21 -20 6 -29 45 -10 45 15 0 12 27 -4 33 -10 4 -12 0 -9 -14z
m238 -119 c-7 -12 -32 -13 -39 -2 -2 4 7 9 20 10 15 1 22 -2 19 -8z m135 -197
c-1 -24 -2 -26 -11 -10 -5 9 -7 22 -4 27 10 17 15 11 15 -17z m-52 -78 c1 -14
-3 -25 -8 -25 -11 0 -14 33 -3 43 9 9 8 10 11 -18z m-178 -95 c0 -5 -4 -10
-10 -10 -5 0 -10 5 -10 10 0 6 5 10 10 10 6 0 10 -4 10 -10z m98 -38 c2 -8 -8
-12 -30 -12 -31 1 -32 1 -13 15 21 17 37 15 43 -3z m6043 -752 c5 0 9 5 9 10
0 6 12 10 27 10 21 0 24 -3 15 -12 -19 -19 -14 -26 13 -20 19 3 24 1 20 -10
-5 -11 3 -14 33 -14 28 1 38 -3 35 -11 -4 -9 5 -13 26 -13 17 0 31 -4 31 -10
0 -5 -13 -7 -32 -3 -23 5 -29 3 -23 -6 6 -10 -7 -12 -54 -9 -33 1 -61 0 -61
-4 0 -11 39 -30 49 -24 4 3 32 -4 61 -15 29 -11 60 -17 69 -14 20 8 71 16 54
9 -19 -8 -16 -22 7 -29 27 -9 25 -32 -2 -33 -13 -1 -45 -5 -73 -11 -40 -7 -26
-8 68 -5 64 2 117 0 117 -4 0 -4 -5 -13 -12 -20 -8 -8 -8 -12 -1 -12 6 0 17 9
24 20 11 15 18 17 29 10 13 -9 13 -11 0 -19 -22 -14 -57 -44 -41 -35 7 3 17 1
21 -6 5 -7 13 -9 21 -5 9 6 8 10 -7 16 -11 4 -2 6 25 5 43 -2 70 -20 34 -23
-30 -2 -73 -22 -73 -33 0 -6 -3 -9 -7 -7 -5 3 -17 -4 -27 -14 -19 -19 -19 -19
8 -19 16 0 25 4 21 10 -3 6 0 10 9 10 8 0 16 6 19 13 3 9 7 9 20 -1 9 -8 21
-11 28 -7 8 5 9 1 5 -13 -4 -11 -2 -23 4 -27 5 -3 10 0 10 8 0 8 8 14 18 13
11 0 17 6 17 18 0 11 5 21 11 23 14 5 11 -34 -4 -49 -7 -7 -12 -21 -12 -32 1
-20 1 -20 19 2 11 12 27 22 36 22 11 0 15 5 12 14 -3 8 -1 17 6 20 9 3 8 8 -3
15 -13 10 -13 12 0 21 8 5 20 10 27 10 6 0 14 6 16 13 3 6 6 2 6 -10 1 -15 -5
-23 -15 -23 -14 0 -14 -3 -4 -15 9 -10 9 -15 1 -15 -6 0 -11 -7 -11 -16 0 -9
-9 -32 -21 -51 -22 -35 -7 -45 18 -11 8 10 21 14 33 11 14 -4 20 0 20 11 0 9
5 16 10 16 6 0 -2 -21 -17 -47 -21 -37 -24 -45 -10 -40 14 5 16 2 11 -17 -8
-34 14 -43 26 -10 6 15 13 24 17 20 9 -9 33 14 33 33 0 14 -2 14 -10 1 -9 -13
-10 -13 -10 0 0 8 14 24 30 35 16 11 30 23 30 28 0 4 5 7 11 7 9 0 8 -24 -4
-60 -1 -3 1 -5 4 -5 3 0 13 -6 22 -14 15 -12 17 -11 18 5 1 11 4 6 8 -11 3
-17 13 -30 21 -30 8 0 25 -6 38 -13 12 -7 22 -10 22 -7 0 3 10 -1 22 -9 12 -9
28 -16 35 -16 18 0 111 -65 148 -104 71 -72 109 -302 136 -811 6 -121 12 -247
14 -280 2 -33 5 -94 7 -135 2 -42 8 -81 16 -88 7 -8 9 -19 6 -25 -5 -9 -4 -9
5 -1 15 13 18 78 6 111 -5 17 -3 24 11 30 23 8 44 35 38 45 -3 5 -2 13 2 19
11 18 12 92 1 114 -5 11 -23 34 -39 51 -40 42 -48 96 -19 134 27 37 27 70 1
77 -34 9 -27 71 15 126 27 35 31 46 20 51 -13 5 -12 14 6 63 12 32 27 65 34
73 8 8 13 31 13 50 1 19 3 42 5 50 2 8 8 29 12 46 7 31 8 32 53 27 70 -7 120
-33 132 -67 13 -36 13 -45 0 -26 -7 11 -10 11 -10 2 0 -7 -9 -22 -20 -34 -11
-12 -20 -28 -20 -36 0 -8 -6 -12 -15 -8 -8 3 -15 1 -15 -5 0 -6 -4 -8 -9 -5
-4 3 -17 -1 -27 -9 -18 -13 -18 -14 3 -9 20 6 21 3 16 -37 -4 -28 -3 -40 5
-36 6 5 8 -1 4 -15 -3 -14 -2 -19 6 -14 7 4 12 3 12 -3 0 -5 -5 -11 -12 -13
-14 -5 -4 -38 12 -38 5 0 10 7 10 16 0 8 5 12 10 9 6 -3 10 -16 10 -29 0 -14
10 -28 25 -36 14 -8 23 -20 21 -27 -3 -7 -1 -13 5 -13 7 0 9 -16 6 -42 -9 -79
-14 -100 -27 -108 -8 -5 -7 -9 4 -13 9 -4 16 -11 16 -16 0 -6 -7 -8 -15 -4
-19 7 -44 -23 -45 -54 0 -34 -20 -27 -27 10 -6 29 -8 26 -20 -38 -23 -120 -23
-144 -1 -159 11 -8 17 -19 14 -24 -3 -5 1 -16 10 -23 67 -55 56 -200 -21 -272
-14 -13 -33 -39 -43 -58 -15 -31 -21 -34 -55 -32 -21 1 -46 10 -55 20 -17 16
-18 20 -21 45 -1 8 -6 7 -17 -4 -10 -10 -18 -40 -21 -84 -2 -38 -7 -76 -10
-84 -4 -8 -7 -18 -7 -22 -1 -5 -5 -8 -10 -7 -5 0 -13 -5 -17 -13 -6 -9 -9 -6
-10 12 -3 38 -3 43 5 68 11 34 -9 26 -28 -10 -12 -26 -16 -29 -17 -13 0 14 -3
12 -9 -9 -6 -20 -5 -40 5 -64 13 -31 13 -33 0 -22 -17 14 -23 11 -39 -22 -13
-27 -45 -36 -57 -17 -6 11 -9 10 -13 -4 -4 -9 -8 -25 -12 -34 -4 -14 -7 -15
-14 -3 -7 11 -11 11 -24 1 -8 -7 -15 -16 -14 -19 4 -15 -24 -52 -34 -46 -6 4
-17 -2 -25 -12 -13 -18 -14 -17 -7 10 6 26 5 27 -15 17 -11 -7 -21 -17 -21
-23 0 -7 -4 -7 -13 1 -8 6 -17 8 -20 4 -4 -3 -7 2 -7 12 0 15 -6 17 -40 12
-22 -3 -40 -1 -40 4 0 14 -55 69 -69 69 -8 0 -10 -8 -6 -21 5 -15 4 -19 -4
-15 -6 4 -11 17 -11 29 0 16 -3 18 -9 8 -11 -16 -16 -7 -25 42 -6 30 -4 37 9
37 21 0 19 17 -5 42 -30 33 -26 64 9 71 27 6 28 8 27 61 0 31 -4 56 -8 56 -4
0 -8 6 -8 13 0 20 -51 77 -63 70 -6 -4 -8 0 -4 10 3 10 2 17 -3 17 -5 0 -12
11 -16 25 -4 15 -13 25 -25 25 -23 0 -45 36 -26 43 6 3 2 6 -11 6 -15 1 -26
10 -32 27 -8 19 -14 23 -23 16 -8 -6 -21 -4 -40 8 -20 12 -25 20 -15 24 7 3
-2 3 -20 0 -31 -6 -33 -4 -27 16 5 17 2 23 -14 27 -16 4 -20 11 -15 26 5 17 3
19 -15 14 -14 -3 -21 0 -21 9 0 8 -4 14 -10 14 -5 0 -17 14 -25 31 -9 17 -19
28 -23 25 -3 -4 0 -12 6 -18 16 -16 15 -60 -3 -84 -11 -14 -14 -15 -15 -4 0
22 -31 38 -88 46 -57 7 -100 -12 -146 -67 -16 -19 -30 -27 -38 -23 -17 11
-100 5 -115 -8 -10 -8 -13 -6 -13 7 0 12 -5 15 -16 11 -11 -4 -18 1 -21 14 -3
11 -9 17 -14 15 -9 -6 -89 31 -89 41 0 4 10 4 22 1 20 -6 20 -5 4 11 -16 16
-18 16 -31 -1 -9 -13 -20 -16 -38 -12 -14 4 -28 2 -31 -4 -4 -6 -18 -11 -32
-11 -36 0 -32 37 7 58 68 37 116 92 111 127 -2 14 65 97 70 88 3 -5 3 -2 1 6
-2 7 6 28 17 46 19 30 19 35 5 69 -8 20 -12 36 -8 36 4 0 2 5 -4 11 -16 16 -4
47 20 53 12 3 31 12 42 20 20 14 20 15 -5 37 -17 14 -21 23 -12 26 6 3 12 11
12 19 0 8 9 14 20 14 10 0 24 8 29 18 7 11 10 13 11 3 0 -8 7 -11 20 -8 11 3
20 1 20 -4 0 -4 6 -6 13 -3 21 8 37 -19 42 -72 2 -27 13 -65 23 -85 28 -54 92
-127 119 -133 12 -4 23 -11 23 -16 0 -6 7 -10 16 -10 8 0 12 5 9 10 -3 6 0 10
8 10 16 0 30 -27 22 -41 -4 -5 0 -6 8 -3 8 3 20 -2 27 -11 7 -8 21 -15 32 -15
21 0 48 -22 48 -40 0 -6 5 -8 13 -3 6 4 30 8 52 9 45 0 86 10 130 29 17 7 41
17 55 23 70 27 80 32 80 42 0 5 7 10 15 10 8 0 15 7 15 15 0 8 7 15 15 15 8 0
19 9 25 20 9 17 6 24 -15 45 -21 19 -25 29 -19 47 4 13 8 28 9 33 0 13 99 19
122 7 14 -7 25 -2 51 23 23 23 29 35 21 41 -8 5 -5 12 12 25 23 17 23 19 11
66 -7 26 -17 50 -23 51 -5 2 -7 8 -3 13 3 5 0 9 -6 9 -7 0 -5 6 4 15 16 17 61
21 51 5 -3 -5 -4 -10 -1 -10 3 0 7 4 11 9 8 15 -24 41 -51 41 -13 0 -24 5 -24
10 0 6 -9 10 -20 10 -11 0 -20 7 -20 15 0 9 -6 12 -15 9 -8 -4 -15 -2 -15 4 0
5 -11 8 -25 7 -14 -2 -25 0 -25 3 0 15 16 30 35 35 15 3 13 5 -8 6 -16 0 -26
5 -23 9 2 4 -7 9 -22 10 -14 1 -28 6 -31 10 -10 14 -121 31 -206 31 -44 0 -99
0 -123 1 -33 2 -48 -3 -63 -19 -24 -26 -29 -26 -22 -2 6 25 -12 35 -30 17 -8
-8 -17 -12 -21 -9 -3 4 -6 0 -6 -7 0 -11 -3 -11 -12 -2 -16 16 -28 15 -28 -2
0 -7 -6 -26 -14 -41 -13 -25 -14 -26 -21 -7 -3 12 -14 22 -23 24 -22 5 -82
-13 -82 -24 0 -4 -13 -8 -30 -8 -19 0 -34 -7 -42 -20 -7 -11 -19 -20 -27 -20
-9 0 -12 -8 -9 -25 4 -20 1 -25 -15 -25 -11 0 -29 -8 -39 -17 -17 -15 -18 -15
-13 -1 5 12 -3 21 -24 33 -29 14 -33 14 -47 0 -8 -8 -23 -15 -32 -15 -26 0
-85 34 -128 74 -22 20 -47 36 -56 36 -9 0 -20 5 -24 11 -4 8 -29 10 -70 6 -35
-2 -65 -2 -68 1 -7 6 -61 12 -150 15 -52 3 -70 7 -78 20 -8 16 -11 16 -24 2
-19 -19 -40 -9 -23 11 6 8 8 14 4 14 -4 0 -2 7 5 15 10 12 10 15 -4 15 -9 0
-16 -6 -16 -14 0 -8 -9 -18 -20 -21 -11 -3 -20 -15 -20 -26 0 -10 -7 -19 -15
-19 -8 0 -15 5 -15 10 0 6 -4 10 -10 10 -5 0 -10 -7 -10 -15 0 -8 -7 -15 -16
-15 -8 0 -30 -11 -48 -25 -18 -14 -38 -25 -43 -25 -6 0 -21 -11 -34 -25 -13
-13 -35 -25 -49 -26 -14 -1 -18 -3 -9 -6 12 -3 -1 -21 -48 -69 -70 -71 -80
-103 -38 -122 26 -12 35 -34 13 -31 -25 3 -39 -1 -34 -10 3 -5 0 -11 -8 -14
-16 -6 -11 -87 9 -127 7 -14 10 -31 8 -37 -3 -7 2 -16 11 -19 9 -3 16 -15 16
-25 0 -10 5 -19 11 -19 6 0 9 -6 6 -14 -3 -8 1 -20 10 -27 8 -7 19 -24 24 -37
7 -18 15 -23 29 -19 11 3 23 -1 28 -9 4 -7 16 -15 27 -17 70 -15 85 -21 86
-36 0 -11 2 -12 6 -3 4 10 9 9 24 -4 10 -9 30 -18 43 -19 14 -2 31 -7 38 -11
7 -4 27 -7 45 -5 27 2 32 -1 27 -13 -8 -21 19 -21 40 0 15 14 16 13 16 -13 1
-24 2 -25 11 -10 5 9 19 17 30 17 22 0 52 -24 42 -33 -3 -3 6 -9 21 -13 25 -6
37 -24 15 -24 -6 0 -8 -9 -4 -20 5 -15 2 -20 -12 -21 -17 -1 -17 -1 0 -6 15
-4 17 -11 11 -36 -11 -52 -43 -107 -70 -119 -16 -7 -20 -14 -13 -19 17 -10 0
-32 -22 -26 -19 5 -57 -39 -44 -51 3 -4 10 0 15 8 5 8 12 12 15 8 11 -11 -29
-49 -73 -70 -29 -14 -42 -26 -40 -37 2 -9 -6 -24 -17 -33 -12 -11 -15 -17 -7
-18 7 0 10 -5 7 -10 -5 -8 -11 -7 -20 0 -16 13 -39 4 -30 -11 4 -5 -2 -9 -12
-9 -27 0 -65 -30 -59 -46 3 -8 -1 -14 -9 -14 -8 0 -15 7 -15 15 0 9 -9 14 -22
14 -13 0 -33 2 -45 6 -15 5 -23 3 -23 -4 0 -6 7 -11 16 -11 11 0 14 -6 9 -20
-4 -11 -2 -20 4 -20 25 0 9 -46 -24 -70 -23 -17 -33 -31 -29 -42 3 -10 0 -18
-6 -18 -6 0 -9 4 -5 9 11 19 -12 19 -28 0 -9 -10 -22 -19 -29 -19 -9 0 -10 3
-2 8 14 9 17 82 3 82 -5 0 -12 -13 -15 -30 -5 -24 -9 -28 -24 -20 -13 7 -22 4
-35 -10 -10 -11 -13 -20 -7 -20 6 0 12 6 15 13 2 6 8 9 12 5 4 -4 4 -15 0 -25
-5 -10 -7 -25 -6 -35 1 -9 -3 -19 -9 -23 -5 -3 -10 1 -10 9 0 9 -7 16 -15 16
-10 0 -14 9 -11 31 2 21 -1 32 -13 37 -24 8 -31 24 -24 51 5 20 3 23 -10 18
-14 -5 -16 0 -11 37 3 32 0 48 -11 60 -9 9 -13 20 -10 26 3 5 -1 10 -9 10 -14
0 -32 22 -35 42 -2 10 -7 26 -21 68 -18 51 -26 777 -11 956 7 76 16 143 20
148 5 6 12 27 15 46 7 33 15 61 32 105 4 11 6 26 5 34 -1 7 2 10 8 6 7 -4 11
3 11 17 0 13 12 34 28 48 15 14 31 33 35 44 4 11 13 16 23 12 8 -3 12 -2 9 4
-3 6 -1 10 5 10 6 0 18 7 26 15 8 8 21 12 29 9 8 -4 15 -2 15 4 0 6 -5 12 -10
14 -6 2 -1 9 10 16 17 10 20 10 20 -4 0 -9 6 -14 13 -11 6 2 12 10 12 18 0 8
9 14 20 14 11 0 25 6 31 14 9 11 14 11 36 0 24 -13 25 -16 13 -54 -7 -22 -13
-32 -14 -22 -1 21 -31 23 -31 2 0 -8 -6 -15 -12 -15 -8 0 -5 -7 6 -15 11 -8
15 -15 10 -15 -5 0 -17 -15 -25 -34 -15 -32 -14 -33 4 -28 17 4 18 1 12 -26
-5 -24 -2 -35 13 -48 11 -9 18 -24 15 -33 -3 -9 7 -4 21 12 14 15 31 27 38 27
9 0 9 -3 -2 -11 -12 -9 -12 -10 4 -5 11 4 22 2 25 -3 4 -6 12 -6 21 0 13 8 13
10 0 19 -13 9 -13 11 0 19 8 6 11 13 7 17 -4 4 -14 -1 -21 -12 -8 -10 -18 -16
-22 -12 -4 5 1 17 11 28 14 15 22 17 37 9 11 -6 17 -17 14 -24 -6 -18 7 -27
28 -19 10 4 16 19 17 38 0 17 3 25 6 17 5 -11 7 -11 14 0 7 11 12 12 29 1 16
-10 20 -10 20 0 0 9 3 8 10 -2 9 -13 14 -7 11 12 0 4 12 16 27 27 15 12 33 26
40 31 7 6 17 8 22 5 5 -3 21 5 34 18 15 15 27 20 29 14 3 -9 9 -8 21 2 9 8 15
20 12 28 -7 18 13 16 56 -6 36 -20 36 -20 30 1 -3 11 1 24 9 29 11 7 10 9 -3
9 -10 0 -18 7 -18 16 0 11 -6 15 -20 11 -11 -3 -20 -2 -20 2 0 5 9 16 20 26
11 10 20 14 20 10 0 -5 5 -4 12 3 17 17 28 15 29 -5 0 -13 3 -11 10 6 5 13 7
26 4 29 -3 3 -5 -1 -5 -9 -1 -10 -5 -8 -15 5 -15 20 -15 20 -29 0 -12 -16 -18
-17 -34 -7 -15 9 -22 9 -31 0 -9 -9 -13 -6 -18 11 -5 19 -10 22 -38 16 -35 -6
-52 7 -38 29 17 26 14 57 -5 57 -18 0 -42 18 -42 31 0 4 10 5 23 2 14 -3 18
-2 9 4 -18 13 24 56 49 50 12 -3 19 0 19 8 0 7 6 16 13 18 6 3 2 6 -10 6 -12
1 -23 -3 -25 -7 -1 -5 -20 -12 -40 -15 -29 -4 -37 -2 -40 11 -5 22 33 52 64
52 25 0 54 42 43 61 -7 11 37 29 70 29 14 0 40 9 60 20 20 11 42 20 49 20 7 0
19 7 26 15 7 9 29 15 51 15 21 0 42 6 46 14 10 17 123 31 123 15 0 -8 4 -8 13
-2 32 24 97 0 97 -37 0 -13 1 -13 10 0 6 10 10 11 10 3 0 -8 14 -12 40 -10 47
2 52 13 10 22 -33 7 -33 7 -24 29 5 14 8 14 21 1 8 -8 19 -15 24 -15z m1405
-147 c19 -21 33 -42 30 -48 -2 -5 0 -17 5 -26 10 -20 -10 -101 -25 -96 -6 3
-10 10 -8 16 1 6 -2 11 -8 11 -14 0 -12 28 3 33 7 3 -2 18 -26 42 -26 27 -34
41 -25 46 9 6 8 12 -5 27 -9 10 -14 22 -10 25 14 15 37 5 69 -30z m2014 4 c49
-24 89 -81 84 -120 -1 -12 -3 -33 -3 -46 -1 -13 -18 -40 -39 -61 -30 -30 -47
-39 -89 -45 -87 -12 -132 1 -180 51 -64 66 -68 154 -9 203 53 44 166 52 236
18z m-4070 -17 c0 -5 -4 -10 -9 -10 -6 0 -13 5 -16 10 -3 6 1 10 9 10 9 0 16
-4 16 -10z m-83 -36 c-3 -3 -12 -4 -19 -1 -8 3 -5 6 6 6 11 1 17 -2 13 -5z
m-49 -13 c11 -7 11 -9 -1 -14 -16 -6 -27 0 -27 15 0 10 11 10 28 -1z m1317
-51 c3 -5 -1 -10 -9 -10 -8 0 -18 5 -21 10 -3 6 1 10 9 10 8 0 18 -4 21 -10z
m332 -192 c-3 -8 -6 -5 -6 6 -1 11 2 17 5 13 3 -3 4 -12 1 -19z m3040 -21 c43
-29 63 -67 63 -119 0 -86 -61 -138 -160 -138 -80 0 -148 61 -157 142 -11 97
61 155 177 142 25 -3 59 -15 77 -27z m-4533 7 c9 -23 7 -36 -3 -30 -12 8 -21
46 -11 46 4 0 11 -7 14 -16z m-357 -80 c-3 -3 -12 -4 -19 -1 -8 3 -5 6 6 6 11
1 17 -2 13 -5z m-17 -24 c0 -5 -4 -10 -10 -10 -5 0 -10 5 -10 10 0 6 5 10 10
10 6 0 10 -4 10 -10z m-33 -72 c-3 -8 -6 -5 -6 6 -1 11 2 17 5 13 3 -3 4 -12
1 -19z m3470 -48 c15 -11 35 -37 44 -57 66 -144 -128 -261 -238 -144 -22 23
-43 78 -43 112 0 37 43 97 80 113 32 13 129 -2 157 -24z m-3502 10 c3 -5 1
-10 -4 -10 -6 0 -11 5 -11 10 0 6 2 10 4 10 3 0 8 -4 11 -10z m-4477 -86 c130
-41 172 -91 142 -169 -6 -16 -14 -23 -22 -19 -7 4 -8 3 -4 -4 7 -12 -10 -52
-28 -65 -22 -15 26 -37 81 -37 115 0 153 -42 153 -168 0 -59 3 -72 24 -91 24
-23 62 -25 261 -18 50 1 80 -11 119 -47 31 -30 37 -43 40 -86 2 -29 -1 -56 -8
-63 -6 -7 -17 -24 -25 -39 -17 -34 -48 -68 -61 -68 -6 0 -10 -6 -10 -13 0 -7
-10 -17 -22 -22 -13 -6 -27 -20 -33 -32 -10 -24 -25 -31 -25 -12 0 8 -4 8 -12
1 -7 -5 -22 -12 -33 -15 -14 -3 -12 -5 9 -6 36 -1 27 -14 -11 -15 -21 -1 -29
-7 -31 -23 -2 -16 -10 -23 -26 -23 -26 0 -54 -26 -41 -38 4 -4 10 -1 12 6 3 6
10 12 16 12 5 0 7 -3 4 -7 -4 -3 1 -11 10 -18 9 -7 13 -17 8 -25 -6 -10 -9 -9
-16 1 -4 7 -10 11 -13 8 -3 -3 6 -16 21 -30 14 -13 23 -19 19 -12 -4 7 0 11
12 10 12 -1 18 -7 15 -17 -3 -10 7 -20 30 -28 40 -14 87 -64 87 -91 0 -27 11
-52 19 -46 9 5 12 -49 5 -82 -6 -33 -58 -64 -115 -69 -107 -10 -260 72 -297
160 -11 25 -10 33 15 73 15 25 34 56 41 69 7 13 17 24 23 24 5 0 9 6 9 14 0 8
6 17 13 19 9 4 8 8 -3 16 -12 9 -12 11 3 17 9 3 23 1 30 -4 7 -6 17 -8 22 -4
15 11 15 42 0 42 -7 0 -15 6 -18 13 -3 8 -12 4 -27 -13 -22 -25 -23 -25 -17
-2 3 15 1 22 -9 22 -8 0 -14 -6 -15 -12 0 -7 -7 2 -15 20 -8 17 -21 32 -29 32
-8 0 -12 6 -9 14 3 8 -4 23 -15 32 -15 13 -17 20 -8 26 7 5 2 8 -15 8 -19 0
-28 5 -28 16 0 30 -41 51 -104 53 -34 1 -74 4 -91 6 -16 2 -78 6 -136 10 -94
7 -108 5 -127 -11 -18 -15 -20 -25 -15 -61 6 -42 -15 -106 -41 -124 -4 -4 -4
-9 2 -13 14 -8 25 -80 18 -114 -8 -34 -62 -67 -91 -55 -27 10 -90 53 -79 53 5
0 4 4 -1 8 -25 17 -46 66 -50 113 -4 51 18 163 37 187 7 8 7 12 0 12 -5 0 -8
8 -6 18 3 10 -8 30 -26 49 -16 18 -30 39 -30 47 0 8 -5 18 -11 22 -6 3 -22 31
-35 60 -13 30 -30 54 -37 54 -7 0 -23 9 -35 20 -26 25 -24 76 7 135 37 71 55
84 139 104 28 7 55 17 58 23 3 5 -2 25 -11 44 -9 19 -18 48 -20 66 -8 67 60
162 127 175 15 3 30 9 33 12 2 4 56 8 120 10 104 2 126 -1 203 -25z m8245
-104 c29 -6 61 -15 72 -20 32 -14 122 -30 170 -30 24 0 47 -5 50 -10 5 -8 11
-7 20 0 8 7 20 8 26 4 7 -4 24 -9 38 -10 102 -11 160 -32 161 -60 0 -5 10 -21
21 -33 17 -18 19 -25 9 -31 -7 -4 -10 -12 -7 -17 3 -5 -1 -22 -8 -37 -8 -16
-13 -32 -10 -36 3 -5 0 -12 -5 -15 -6 -4 -15 -18 -20 -31 -11 -28 -30 -32 -31
-6 0 13 -2 12 -9 -5 -5 -13 -16 -23 -25 -23 -15 0 -19 -11 -16 -38 2 -10 -4
-12 -18 -7 -15 5 -21 2 -21 -9 0 -9 -7 -16 -15 -16 -8 0 -15 -6 -15 -14 0 -8
-7 -16 -15 -20 -8 -3 -15 -12 -15 -20 0 -8 -10 -16 -22 -18 -15 -2 -22 -9 -20
-20 1 -9 -2 -19 -8 -23 -5 -3 -10 -17 -10 -30 0 -13 -5 -27 -11 -30 -6 -4 -8
-13 -6 -19 3 -7 1 -19 -5 -27 -8 -11 -9 -10 -4 4 3 10 0 17 -8 17 -22 0 -25
-23 -6 -50 10 -15 16 -42 15 -69 -1 -29 4 -45 13 -49 12 -4 11 -8 -4 -20 -13
-10 -15 -16 -6 -19 6 -3 10 -9 7 -13 -9 -15 -18 -228 -16 -366 2 -87 -1 -134
-8 -138 -6 -4 -11 -18 -11 -32 0 -13 -5 -24 -10 -24 -6 0 -13 -8 -17 -17 -3
-10 -11 -25 -18 -33 -6 -8 -17 -35 -24 -60 -7 -25 -24 -59 -37 -77 -13 -17
-24 -36 -24 -40 0 -12 -103 -33 -110 -23 -3 4 -15 10 -27 14 -13 4 -23 12 -23
17 0 5 -7 9 -14 9 -25 0 -64 44 -101 116 -21 38 -43 76 -50 84 -35 40 -56 115
-59 215 -2 55 -7 133 -11 172 -8 78 -1 108 42 171 12 18 29 59 37 90 9 31 23
77 31 102 16 50 44 224 40 255 -1 11 -5 27 -9 36 -4 9 -6 20 -5 25 4 15 -13
88 -23 100 -5 7 -8 16 -7 20 1 5 0 11 -1 14 -7 18 -6 91 1 96 6 3 5 11 -2 20
-9 11 -8 14 4 14 9 0 19 9 22 20 3 11 11 20 16 20 5 0 9 6 9 14 0 20 46 47 66
39 12 -4 15 -3 10 5 -4 7 -4 18 1 25 5 9 8 8 11 -5 2 -11 21 -20 55 -28z
m1110 -55 c15 -4 27 -11 27 -16 0 -5 5 -9 11 -9 7 0 27 -16 45 -35 19 -18 34
-32 34 -29 0 3 14 -3 30 -13 25 -15 32 -15 39 -4 6 9 11 10 15 2 9 -14 46 -14
46 0 0 6 6 9 13 6 6 -2 41 4 76 14 38 11 70 15 80 10 9 -5 21 -7 26 -5 6 2 23
-19 40 -46 23 -39 29 -61 28 -97 -1 -25 -6 -49 -10 -52 -5 -3 -16 -18 -25 -32
-9 -15 -26 -29 -37 -32 -12 -3 -19 -1 -15 4 3 5 -2 9 -10 9 -8 0 -16 -10 -18
-22 -2 -18 -9 -22 -28 -20 -14 1 -30 9 -36 17 -6 8 -19 15 -28 15 -9 0 -16 5
-16 11 0 6 -10 25 -22 42 -13 18 -22 34 -22 37 1 3 -11 10 -26 17 -23 9 -33 8
-59 -8 -17 -10 -31 -23 -31 -28 0 -6 -11 -22 -25 -37 -14 -15 -24 -33 -21 -40
3 -7 -4 -20 -15 -30 -10 -9 -19 -28 -19 -42 0 -14 -8 -34 -17 -45 -10 -11 -12
-17 -5 -13 6 4 12 2 12 -4 0 -6 -6 -13 -14 -16 -8 -3 -12 -13 -9 -25 3 -10 1
-19 -5 -19 -5 0 -8 -20 -7 -45 3 -39 1 -45 -16 -45 -13 0 -18 -6 -16 -20 2
-11 6 -23 10 -26 4 -4 4 -18 1 -30 -5 -18 -2 -24 11 -24 9 0 13 -5 10 -11 -4
-6 -9 -29 -11 -51 -5 -47 -2 -43 -33 -53 -21 -6 -23 -5 -18 14 3 12 0 19 -7
18 -6 -1 -11 12 -11 33 0 31 3 35 23 32 15 -1 22 2 19 10 -2 7 -14 12 -25 11
-19 -2 -20 2 -16 40 3 23 5 53 5 66 -1 14 5 28 11 33 9 5 4 8 -12 8 -20 0 -22
2 -10 10 13 8 12 11 -4 23 -13 10 -17 21 -13 37 4 15 -1 33 -14 51 -10 15 -19
34 -19 42 0 9 -8 35 -18 59 -11 24 -17 48 -15 55 2 6 -1 14 -6 18 -25 15 4
225 30 225 5 0 9 8 9 18 0 11 13 25 33 34 33 16 51 17 100 3z m-2983 -25 c0
-5 -5 -10 -11 -10 -5 0 -7 5 -4 10 3 6 8 10 11 10 2 0 4 -4 4 -10z m-2552 -22
c54 -22 54 -22 69 -3 15 19 15 19 9 -9 -6 -23 -4 -27 8 -23 9 4 16 2 16 -3 0
-6 -6 -10 -12 -10 -9 0 -10 -2 -2 -8 6 -4 21 -38 34 -77 18 -58 65 -187 78
-217 2 -5 -8 -8 -22 -8 -19 0 -29 -7 -36 -26 -6 -14 -8 -29 -5 -34 10 -16 -23
-32 -43 -21 -31 17 -42 -5 -32 -64 5 -27 11 -95 14 -150 11 -226 32 -278 50
-125 8 73 47 230 57 230 5 0 12 -12 16 -27 9 -37 10 -40 12 -58 0 -8 8 -15 16
-15 9 0 15 -9 15 -24 0 -34 -17 -41 -24 -11 -8 31 -20 25 -40 -18 -25 -53 -36
-170 -22 -244 6 -33 14 -44 40 -57 29 -13 31 -19 31 -58 -1 -24 -5 -50 -9 -57
-5 -8 -3 -16 5 -21 10 -7 10 -11 0 -24 -11 -13 -11 -16 1 -16 8 0 20 6 27 13
10 10 12 3 7 -38 -10 -98 -14 -119 -24 -123 -5 -1 -18 -9 -28 -17 -27 -19 -7
-36 50 -42 31 -4 46 -11 49 -22 5 -23 -4 -52 -14 -45 -5 3 -9 0 -9 -5 0 -6 8
-11 18 -11 15 -1 15 -2 -3 -18 -11 -9 -19 -24 -18 -32 3 -15 -38 -40 -65 -40
-12 0 -12 -3 -2 -15 7 -9 9 -19 5 -23 -4 -4 -10 -1 -12 6 -4 10 -8 10 -19 1
-18 -15 -32 -3 -16 13 15 15 -3 38 -29 38 -12 0 -19 7 -19 18 0 10 -7 28 -16
40 -14 20 -14 22 0 22 20 0 21 16 2 23 -9 4 -12 14 -9 26 4 16 1 21 -14 21
-17 0 -19 9 -21 108 -2 105 -2 109 21 119 l23 11 -12 98 c-12 100 -23 168 -43
279 -6 33 -12 124 -15 201 -4 145 -12 178 -45 189 -11 3 -22 18 -26 33 -9 40
-28 60 -61 65 -104 16 -140 48 -151 135 -5 42 -1 56 21 95 46 78 123 97 224
55z m1577 2 c3 -5 1 -10 -4 -10 -6 0 -11 5 -11 10 0 6 2 10 4 10 3 0 8 -4 11
-10z m798 -180 c32 -25 26 -43 -18 -64 -59 -28 -66 -23 -47 34 18 55 27 60 65
30z m-1479 -109 c9 -12 8 -12 -11 -2 -15 7 -20 17 -16 28 5 14 8 14 11 2 3 -7
10 -20 16 -28z m1206 -546 c0 -8 -4 -15 -9 -15 -13 0 -22 16 -14 24 11 11 23
6 23 -9z m-208 -35 c-14 -15 -27 -20 -41 -15 -31 10 -26 20 17 31 46 12 49 11
24 -16z m193 10 c4 -6 11 -8 16 -5 5 4 9 2 9 -3 0 -5 9 -20 21 -33 11 -13 16
-25 10 -27 -7 -2 -6 -9 3 -17 7 -8 11 -25 9 -39 -6 -28 -13 -32 -30 -15 -6 6
-33 11 -59 11 -27 -1 -51 3 -55 9 -3 5 -16 11 -28 12 -13 1 -20 6 -17 14 4 10
-1 12 -19 7 -22 -5 -25 -3 -25 20 0 18 5 26 18 26 10 0 28 7 40 16 12 8 27 12
34 8 6 -4 8 -3 4 4 -6 10 12 18 46 21 9 0 20 -4 23 -9z m-209 -225 c16 -8 38
-15 49 -15 11 0 29 -7 39 -15 11 -8 16 -15 10 -15 -14 1 -144 47 -151 54 -12
12 25 6 53 -9z m189 -63 c34 -14 65 -52 42 -52 -16 0 -86 51 -87 63 0 5 3 7 8
5 4 -3 21 -10 37 -16z m-1365 -106 c0 -3 -4 -8 -10 -11 -5 -3 -10 -1 -10 4 0
6 5 11 10 11 6 0 10 -2 10 -4z m8 -64 c2 -7 -3 -12 -12 -12 -9 0 -16 7 -16 16
0 17 22 14 28 -4z m42 -2 c0 -5 -4 -10 -10 -10 -5 0 -10 5 -10 10 0 6 5 10 10
10 6 0 10 -4 10 -10z m1090 -10 c0 -5 -2 -10 -4 -10 -3 0 -8 5 -11 10 -3 6 -1
10 4 10 6 0 11 -4 11 -10z m-1130 -25 c19 -23 8 -25 -14 -4 -11 11 -15 19 -9
19 6 0 16 -7 23 -15z m2240 -4 c0 -6 -4 -13 -10 -16 -5 -3 -10 1 -10 9 0 9 5
16 10 16 6 0 10 -4 10 -9z m-885 -37 c-11 -8 -30 -12 -42 -9 -12 3 -23 0 -25
-6 -2 -6 -13 -10 -23 -8 -19 4 -19 5 2 26 13 13 29 20 37 17 8 -3 23 -1 33 5
28 15 43 -6 18 -25z m-1751 -109 c-4 -8 -11 -15 -16 -15 -6 0 -5 6 2 15 7 8
14 15 16 15 2 0 1 -7 -2 -15z m1785 -86 c-10 -6 -8 -9 9 -9 13 0 22 6 22 15 0
8 5 15 11 15 7 0 9 -9 6 -21 -4 -15 0 -23 14 -26 10 -3 19 -12 19 -21 0 -12
-9 -14 -45 -9 l-46 7 18 -24 c10 -13 23 -21 30 -19 10 4 11 -2 4 -36 -1 -2 -7
2 -15 8 -18 15 -30 -11 -13 -29 9 -9 6 -9 -10 1 -12 7 -24 21 -26 30 -4 13
-11 16 -27 12 -15 -4 -21 -2 -16 5 3 6 -3 14 -15 17 -13 4 -25 2 -29 -5 -5 -8
-12 -5 -23 11 -14 20 -17 20 -23 6 -3 -9 -10 -14 -15 -11 -5 3 -2 18 6 34 14
26 18 28 41 19 18 -6 31 -6 40 2 7 6 17 8 22 5 5 -3 20 5 33 17 13 13 28 21
33 19 4 -3 2 -8 -5 -13z m111 -78 c0 -4 -6 -8 -14 -8 -8 0 -12 6 -9 14 5 13
23 9 23 -6z m10 -82 c0 -6 -4 -7 -10 -4 -5 3 -10 11 -10 16 0 6 5 7 10 4 6 -3
10 -11 10 -16z m-5985 -390 c-4 -5 5 -9 18 -9 13 0 41 -11 61 -25 20 -14 39
-25 42 -25 3 0 33 -20 67 -44 34 -24 85 -54 112 -67 98 -45 112 -65 136 -201
7 -38 16 -71 21 -74 4 -3 8 -13 8 -24 0 -10 20 -58 45 -108 51 -101 63 -146
45 -157 -24 -15 -90 -8 -111 11 -29 26 -90 119 -128 194 -18 35 -38 72 -44 81
-14 18 -113 134 -139 160 -9 10 -44 53 -77 96 -33 43 -68 87 -78 98 -10 11
-17 24 -15 29 1 4 -2 14 -9 22 -8 10 -8 21 2 43 11 24 16 28 31 20 10 -6 16
-14 13 -20z m6521 -87 c-18 -16 -18 -16 -6 6 6 13 14 21 18 18 3 -4 -2 -14
-12 -24z m314 -42 c0 -5 -4 -10 -10 -10 -5 0 -10 5 -10 10 0 6 5 10 10 10 6 0
10 -4 10 -10z m-3800 -97 c11 -10 20 -29 20 -43 -1 -30 -24 -65 -38 -56 -6 3
-12 1 -14 -5 -3 -8 -10 -5 -22 6 -9 10 -14 21 -9 24 10 7 10 37 0 47 -8 8 20
44 34 44 5 0 18 -8 29 -17z m3790 -103 c0 -5 -4 -10 -10 -10 -5 0 -10 5 -10
10 0 6 5 10 10 10 6 0 10 -4 10 -10z m0 -40 c0 -5 -5 -10 -11 -10 -5 0 -7 5
-4 10 3 6 8 10 11 10 2 0 4 -4 4 -10z m-3860 -15 c0 -8 -7 -15 -15 -15 -9 0
-12 6 -9 15 4 8 10 15 15 15 5 0 9 -7 9 -15z m-20 -44 c0 -6 15 -36 34 -68 40
-70 41 -112 3 -248 -14 -49 -29 -106 -32 -125 -4 -19 -12 -44 -18 -55 -6 -11
-12 -28 -14 -38 -3 -17 2 -18 39 -12 80 13 191 56 392 151 244 116 226 108
226 95 0 -6 -7 -11 -16 -11 -9 0 -27 -9 -41 -20 -14 -11 -31 -20 -38 -20 -6 0
-20 -9 -30 -20 -10 -11 -24 -20 -32 -20 -7 0 -13 -4 -13 -10 0 -5 -7 -10 -15
-10 -9 0 -18 -7 -21 -15 -4 -9 -11 -15 -18 -14 -12 2 -32 -5 -92 -32 -22 -11
-45 -19 -51 -19 -6 0 -17 -7 -24 -16 -12 -14 -80 -49 -132 -67 -10 -4 -15 -12
-12 -18 5 -6 0 -9 -11 -7 -11 1 -30 -5 -44 -15 -13 -9 -30 -17 -37 -17 -7 0
-17 -9 -23 -20 -6 -11 -21 -20 -34 -20 -13 0 -29 -6 -35 -14 -7 -8 -25 -18
-41 -21 -16 -4 -40 -15 -54 -26 -14 -11 -31 -17 -37 -14 -5 4 -16 -1 -23 -10
-7 -10 -29 -19 -52 -21 -76 -7 -104 -11 -110 -17 -4 -3 -15 -2 -25 4 -15 8
-19 6 -19 -7 0 -12 -6 -15 -26 -11 -28 5 -36 -1 -87 -62 -43 -51 -43 -30 0 37
37 59 41 62 190 137 84 43 158 84 165 92 14 17 0 30 -42 39 -32 8 -90 81 -107
136 -8 24 -14 79 -15 123 -2 111 21 185 77 243 l43 46 113 1 c78 1 114 5 117
13 4 14 22 16 22 3z m3995 -80 c3 -5 1 -12 -5 -16 -5 -3 -10 1 -10 9 0 18 6
21 15 7z m-100 -21 c3 -5 1 -10 -4 -10 -6 0 -11 5 -11 10 0 6 2 10 4 10 3 0 8
-4 11 -10z m35 -34 c0 -3 -4 -8 -10 -11 -5 -3 -10 -1 -10 4 0 6 5 11 10 11 6
0 10 -2 10 -4z m-10 -63 c0 -21 -3 -24 -9 -14 -5 8 -7 20 -4 28 8 21 13 15 13
-14z m579 -29 c3 -16 1 -17 -13 -5 -19 16 -21 34 -3 29 6 -3 14 -13 16 -24z
m-3319 -10 c0 -8 -4 -12 -10 -9 -5 3 -10 10 -10 16 0 5 5 9 10 9 6 0 10 -7 10
-16z m3018 -6 c18 -18 14 -38 -7 -38 -23 0 -35 15 -27 35 7 18 18 19 34 3z
m62 -8 c0 -5 -4 -10 -9 -10 -6 0 -13 5 -16 10 -3 6 1 10 9 10 9 0 16 -4 16
-10z m40 -20 c0 -5 -4 -10 -10 -10 -5 0 -10 5 -10 10 0 6 5 10 10 10 6 0 10
-4 10 -10z m217 -32 c-3 -8 -6 -5 -6 6 -1 11 2 17 5 13 3 -3 4 -12 1 -19z
m-317 -40 c0 -5 -4 -8 -10 -8 -5 0 -10 10 -10 23 0 18 2 19 10 7 5 -8 10 -18
10 -22z m30 28 c0 -3 -4 -8 -10 -11 -5 -3 -10 -1 -10 4 0 6 5 11 10 11 6 0 10
-2 10 -4z m-236 -31 c-7 -16 -24 -21 -24 -6 0 8 7 13 27 20 1 1 0 -6 -3 -14z
m541 -5 c3 -5 1 -10 -4 -10 -6 0 -11 5 -11 10 0 6 2 10 4 10 3 0 8 -4 11 -10z
m-450 -31 c-8 -12 -35 -12 -35 0 0 11 22 20 33 14 4 -2 5 -9 2 -14z m35 3 c0
-5 10 -13 22 -19 12 -5 18 -12 12 -15 -5 -3 -20 5 -34 18 -13 13 -19 24 -12
24 6 0 12 -4 12 -8z m430 5 c0 -1 4 -18 10 -37 8 -29 8 -32 -4 -20 -19 20 -30
60 -17 60 6 0 11 -1 11 -3z m-463 -44 c-9 -9 -20 -13 -24 -9 -4 4 -1 11 7 16
25 16 35 11 17 -7z m4053 6 c0 -6 6 -9 14 -6 8 3 17 -1 20 -9 5 -12 1 -14 -15
-9 -12 4 -19 3 -16 -2 4 -5 -8 -7 -26 -4 -19 3 -25 6 -14 9 9 2 17 10 17 18 0
8 5 14 10 14 6 0 10 -5 10 -11z m440 1 c0 -5 -4 -10 -9 -10 -6 0 -13 5 -16 10
-3 6 1 10 9 10 9 0 16 -4 16 -10z m-10380 -36 c0 -3 -7 -12 -15 -21 -20 -19
-32 -9 -15 12 12 15 30 20 30 9z m7250 2 c0 -3 -4 -8 -10 -11 -5 -3 -10 -1
-10 4 0 6 5 11 10 11 6 0 10 -2 10 -4z m2980 -6 c0 -5 -4 -10 -10 -10 -5 0
-10 5 -10 10 0 6 5 10 10 10 6 0 10 -4 10 -10z m-3850 -22 c0 -19 -2 -20 -10
-8 -13 19 -13 30 0 30 6 0 10 -10 10 -22z m900 12 c0 -5 -4 -10 -10 -10 -5 0
-10 5 -10 10 0 6 5 10 10 10 6 0 10 -4 10 -10z m3000 0 c0 -5 -4 -10 -10 -10
-5 0 -10 5 -10 10 0 6 5 10 10 10 6 0 10 -4 10 -10z m-2850 -61 c0 -6 -4 -7
-10 -4 -5 3 -10 11 -10 16 0 6 5 7 10 4 6 -3 10 -11 10 -16z m140 -29 c0 -5
-5 -10 -11 -10 -5 0 -7 5 -4 10 3 6 8 10 11 10 2 0 4 -4 4 -10z m121 -38 c8
-20 6 -21 -11 -12 -11 6 -20 18 -20 26 0 22 22 12 31 -14z m196 -14 c-3 -8 -6
-5 -6 6 -1 11 2 17 5 13 3 -3 4 -12 1 -19z m-247 -8 c0 -5 -4 -10 -10 -10 -5
0 -10 5 -10 10 0 6 5 10 10 10 6 0 10 -4 10 -10z m155 -10 c3 -5 1 -10 -4 -10
-6 0 -11 5 -11 10 0 6 2 10 4 10 3 0 8 -4 11 -10z m365 -20 c0 -5 -4 -10 -10
-10 -5 0 -10 5 -10 10 0 6 5 10 10 10 6 0 10 -4 10 -10z m-30 -26 c0 -8 -4
-12 -10 -9 -5 3 -10 10 -10 16 0 5 5 9 10 9 6 0 10 -7 10 -16z m67 -16 c-3 -8
-6 -5 -6 6 -1 11 2 17 5 13 3 -3 4 -12 1 -19z m127 -64 c4 -10 1 -14 -6 -12
-15 5 -23 28 -10 28 5 0 13 -7 16 -16z m86 -19 c0 -8 -4 -15 -9 -15 -13 0 -22
16 -14 24 11 11 23 6 23 -9z m110 -18 c0 -5 -4 -5 -10 -2 -5 3 -10 14 -10 23
0 15 2 15 10 2 5 -8 10 -19 10 -23z m-70 -7 c0 -5 -2 -10 -4 -10 -3 0 -8 5
-11 10 -3 6 -1 10 4 10 6 0 11 -4 11 -10z m-7260 -25 c0 -3 -18 -24 -41 -47
-22 -23 -48 -52 -56 -65 -19 -29 -38 -30 -22 -1 25 47 119 136 119 113z m8487
-36 c21 -7 58 -27 83 -45 33 -23 66 -35 120 -44 41 -7 80 -16 85 -20 6 -4 22
-10 38 -14 70 -17 158 -94 239 -209 22 -32 108 -73 118 -57 5 8 9 6 14 -6 8
-22 5 -25 -41 -31 -21 -3 -45 -11 -54 -19 -8 -8 -23 -14 -31 -14 -9 0 -38 -10
-65 -22 -41 -18 -71 -22 -203 -25 -85 -2 -212 2 -281 8 -151 13 -172 7 -206
-61 -16 -32 -22 -64 -22 -112 -1 -79 -38 -379 -52 -425 -6 -17 -27 -47 -49
-67 -39 -35 -60 -38 -145 -21 -35 7 -106 -17 -122 -41 -8 -13 -12 -28 -8 -34
3 -6 -3 -10 -14 -10 -12 0 -21 6 -21 13 0 7 -12 29 -26 48 l-25 34 7 -30 c4
-16 11 -40 15 -53 10 -27 12 -58 3 -49 -4 3 -21 41 -39 84 -18 43 -46 111 -64
152 -40 94 -39 100 4 28 19 -32 35 -62 35 -68 0 -5 5 -9 10 -9 10 0 6 37 -9
75 -18 44 -59 303 -55 340 9 73 14 86 55 130 30 33 50 45 81 50 54 9 111 50
140 100 34 58 38 81 38 175 0 100 22 171 62 205 21 18 49 25 130 35 57 7 109
16 116 20 19 10 96 3 139 -11z m-1038 -189 c0 -9 -4 -6 -9 6 -5 12 -13 25 -19
28 -6 4 -8 20 -5 35 4 16 1 32 -5 35 -6 4 -8 13 -4 19 7 11 43 -94 42 -123z
m-83 83 c-11 -11 -17 4 -9 23 7 18 8 18 11 1 2 -10 1 -21 -2 -24z m24 -44 c0
-6 -4 -7 -10 -4 -5 3 -10 11 -10 16 0 6 5 7 10 4 6 -3 10 -11 10 -16z m10 -39
c0 -5 -4 -10 -10 -10 -5 0 -10 5 -10 10 0 6 5 10 10 10 6 0 10 -4 10 -10z
m-30 -20 c0 -5 -4 -10 -10 -10 -5 0 -10 5 -10 10 0 6 5 10 10 10 6 0 10 -4 10
-10z m49 -46 c-9 -11 -15 -11 -25 -3 -16 13 -19 33 -4 24 6 -3 10 -1 10 6 0 8
4 8 15 -1 12 -10 13 -16 4 -26z m51 15 c0 -6 -4 -7 -10 -4 -5 3 -10 11 -10 16
0 6 5 7 10 4 6 -3 10 -11 10 -16z m-30 -91 c0 -6 -7 -7 -16 -4 -9 3 -18 6 -20
6 -3 0 -3 4 1 10 7 11 35 2 35 -12z m67 -40 c-3 -8 -6 -5 -6 6 -1 11 2 17 5
13 3 -3 4 -12 1 -19z m-73 -3 c3 -8 1 -15 -4 -15 -6 0 -10 7 -10 15 0 8 2 15
4 15 2 0 6 -7 10 -15z m1773 -37 c-3 -8 -6 -5 -6 6 -1 11 2 17 5 13 3 -3 4
-12 1 -19z m-1731 -22 c11 -36 2 -66 -19 -66 -8 0 -8 3 -2 8 13 10 14 51 1 49
-6 -1 -12 8 -14 21 -5 36 22 26 34 -12z m44 -117 c0 -5 -4 -9 -10 -9 -5 0 -10
7 -10 16 0 8 5 12 10 9 6 -3 10 -10 10 -16z m1255 -1336 c23 -60 96 -133 157
-158 27 -11 48 -22 48 -25 0 -3 -21 -14 -48 -25 -60 -25 -132 -97 -157 -157
-11 -27 -23 -48 -26 -48 -4 0 -14 21 -24 47 -23 60 -96 133 -157 158 -27 11
-48 22 -48 25 0 3 21 14 48 25 60 25 132 97 157 157 11 27 23 48 26 48 4 0 14
-21 24 -47z"/>
<path d="M6438 6953 c7 -3 16 -2 19 1 4 3 -2 6 -13 5 -11 0 -14 -3 -6 -6z"/>
<path d="M6480 6860 c0 -5 5 -10 11 -10 5 0 7 5 4 10 -3 6 -8 10 -11 10 -2 0
-4 -4 -4 -10z"/>
<path d="M6665 6749 c-11 -17 1 -21 15 -4 8 9 8 15 2 15 -6 0 -14 -5 -17 -11z"/>
<path d="M5669 6703 c-13 -17 -13 -17 6 -3 11 8 22 16 24 17 2 2 0 3 -6 3 -6
0 -17 -8 -24 -17z"/>
<path d="M5680 6662 c0 -7 0 -15 1 -18 0 -4 -5 -10 -11 -14 -9 -5 -9 -10 -1
-14 11 -7 28 41 17 51 -3 4 -6 1 -6 -5z"/>
<path d="M5722 6620 c0 -14 2 -19 5 -12 2 6 2 18 0 25 -3 6 -5 1 -5 -13z"/>
<path d="M6783 6605 c-8 -9 -9 -16 -3 -20 6 -3 13 1 16 10 9 21 2 26 -13 10z"/>
<path d="M5818 6493 c7 -3 16 -2 19 1 4 3 -2 6 -13 5 -11 0 -14 -3 -6 -6z"/>
<path d="M5725 6390 c3 -5 8 -10 11 -10 2 0 4 5 4 10 0 6 -5 10 -11 10 -5 0
-7 -4 -4 -10z"/>
<path d="M5615 6360 c3 -5 8 -10 11 -10 2 0 4 5 4 10 0 6 -5 10 -11 10 -5 0
-7 -4 -4 -10z"/>
<path d="M5456 6281 c-4 -5 -2 -12 3 -15 5 -4 12 -2 15 3 4 5 2 12 -3 15 -5 4
-12 2 -15 -3z"/>
<path d="M7170 6150 c0 -5 7 -10 15 -10 8 0 15 -4 15 -10 0 -5 10 -15 23 -21
l22 -12 -20 22 c-25 29 -55 46 -55 31z"/>
<path d="M5065 6110 c-3 -5 -1 -10 4 -10 6 0 11 5 11 10 0 6 -2 10 -4 10 -3 0
-8 -4 -11 -10z"/>
<path d="M7726 5690 c-20 -22 -36 -48 -36 -58 0 -26 59 -235 70 -246 10 -10
18 74 23 232 4 128 -1 134 -57 72z"/>
<path d="M5232 5449 c-7 -11 -11 -23 -9 -25 7 -7 29 24 25 36 -2 6 -9 1 -16
-11z"/>
<path d="M6470 5448 c0 -18 34 -51 43 -42 4 4 13 1 22 -6 9 -7 18 -10 21 -7 8
8 -28 47 -38 41 -5 -3 -18 2 -29 12 -16 14 -19 15 -19 2z"/>
<path d="M6705 5281 c-3 -5 -1 -12 5 -16 5 -3 10 1 10 9 0 18 -6 21 -15 7z"/>
<path d="M5675 5200 c-3 -6 1 -7 9 -4 18 7 21 14 7 14 -6 0 -13 -4 -16 -10z"/>
<path d="M5590 5139 c0 -5 5 -7 10 -4 6 3 10 8 10 11 0 2 -4 4 -10 4 -5 0 -10
-5 -10 -11z"/>
<path d="M5215 5070 c-3 -5 -1 -10 4 -10 6 0 11 5 11 10 0 6 -2 10 -4 10 -3 0
-8 -4 -11 -10z"/>
<path d="M7621 5003 c-11 -12 -11 -20 -1 -41 8 -17 14 -22 17 -14 3 7 0 18 -6
26 -7 9 -7 16 1 24 6 6 10 14 7 16 -2 2 -10 -3 -18 -11z"/>
<path d="M7566 4861 c-4 -7 -5 -15 -2 -18 9 -9 19 4 14 18 -4 11 -6 11 -12 0z"/>
<path d="M5169 4847 c16 -19 41 -23 41 -5 0 6 -3 8 -6 5 -4 -3 -16 -1 -28 5
-19 10 -20 10 -7 -5z"/>
<path d="M5128 4803 c6 -2 18 -2 25 0 6 3 1 5 -13 5 -14 0 -19 -2 -12 -5z"/>
<path d="M5200 4795 c0 -8 4 -15 10 -15 5 0 7 7 4 15 -4 8 -8 15 -10 15 -2 0
-4 -7 -4 -15z"/>
<path d="M5147 4773 c-12 -12 -7 -41 8 -47 8 -3 15 -15 15 -26 0 -11 5 -20 10
-20 14 0 12 23 -2 39 -11 11 -10 13 3 8 15 -5 15 -3 2 24 -14 29 -24 35 -36
22z"/>
<path d="M7570 4760 c0 -5 5 -10 11 -10 5 0 7 5 4 10 -3 6 -8 10 -11 10 -2 0
-4 -4 -4 -10z"/>
<path d="M5220 4730 c0 -5 7 -10 15 -10 8 0 15 5 15 10 0 6 -7 10 -15 10 -8 0
-15 -4 -15 -10z"/>
<path d="M1165 5140 c3 -5 10 -10 16 -10 5 0 9 5 9 10 0 6 -7 10 -16 10 -8 0
-12 -4 -9 -10z"/>
<path d="M9271 5564 c0 -11 3 -14 6 -6 3 7 2 16 -1 19 -3 4 -6 -2 -5 -13z"/>
<path d="M10081 5404 c0 -11 3 -14 6 -6 3 7 2 16 -1 19 -3 4 -6 -2 -5 -13z"/>
<path d="M10071 5324 c0 -11 3 -14 6 -6 3 7 2 16 -1 19 -3 4 -6 -2 -5 -13z"/>
<path d="M4725 5029 c14 -67 37 -89 49 -46 4 16 -2 29 -25 51 l-31 29 7 -34z"/>
<path d="M4672 4850 c0 -14 2 -19 5 -12 2 6 2 18 0 25 -3 6 -5 1 -5 -13z"/>
<path d="M7960 3219 c0 -5 5 -7 10 -4 6 3 10 8 10 11 0 2 -4 4 -10 4 -5 0 -10
-5 -10 -11z"/>
<path d="M79 8243 c14 -27 24 -29 41 -8 11 13 10 14 -4 9 -9 -3 -24 0 -33 7
-15 13 -15 12 -4 -8z"/>
<path d="M360 8135 c0 -8 5 -15 10 -15 6 0 10 7 10 15 0 8 -4 15 -10 15 -5 0
-10 -7 -10 -15z"/>
<path d="M400 8130 c0 -5 5 -10 11 -10 5 0 7 5 4 10 -3 6 -8 10 -11 10 -2 0
-4 -4 -4 -10z"/>
<path d="M445 8130 c3 -5 8 -10 11 -10 2 0 4 5 4 10 0 6 -5 10 -11 10 -5 0 -7
-4 -4 -10z"/>
<path d="M487 8084 c7 -3 9 -13 6 -22 -5 -13 -3 -14 7 -5 14 13 5 33 -13 32
-9 0 -9 -2 0 -5z"/>
<path d="M517 8013 c8 -12 20 -23 27 -22 7 0 6 2 -1 6 -7 2 -13 13 -13 22 0
10 -6 18 -14 18 -12 0 -12 -4 1 -24z"/>
<path d="M560 8020 c0 -5 5 -10 10 -10 6 0 10 5 10 10 0 6 -4 10 -10 10 -5 0
-10 -4 -10 -10z"/>
<path d="M482 7968 c7 -19 38 -22 38 -4 0 10 -9 16 -21 16 -12 0 -19 -5 -17
-12z"/>
<path d="M460 7935 c0 -8 7 -15 15 -15 9 0 12 6 9 15 -4 8 -10 15 -15 15 -5 0
-9 -7 -9 -15z"/>
<path d="M465 7900 c-3 -5 -1 -10 4 -10 6 0 11 5 11 10 0 6 -2 10 -4 10 -3 0
-8 -4 -11 -10z"/>
<path d="M405 7880 c4 -6 11 -8 16 -5 14 9 11 15 -7 15 -8 0 -12 -5 -9 -10z"/>
<path d="M2021 6316 c-14 -8 -31 -12 -38 -9 -16 6 -17 -9 -2 -24 7 -7 8 -17 1
-30 -16 -30 -31 -123 -20 -129 5 -3 1 -12 -9 -20 -13 -10 -15 -16 -6 -22 7 -4
12 -16 12 -27 1 -29 6 -59 13 -71 4 -5 3 -16 -2 -24 -5 -9 -5 -19 2 -27 17
-21 30 -15 23 10 -6 21 -5 21 7 2 16 -25 17 -35 6 -58 -5 -9 -6 -23 -1 -30 4
-6 8 -18 9 -27 1 -8 5 -27 8 -41 5 -17 3 -30 -4 -34 -8 -5 -6 -13 7 -28 18
-20 17 -20 -4 -15 -20 5 -41 -17 -28 -30 3 -3 5 0 5 7 0 7 5 9 10 6 23 -14 70
-14 70 0 0 8 -5 17 -10 20 -8 5 -8 11 0 20 5 7 10 39 10 71 0 93 0 97 0 142 0
24 4 69 10 100 15 87 8 242 -13 257 -9 7 -14 15 -10 18 11 12 -21 7 -46 -7z"/>
<path d="M2047 5673 c-13 -12 -8 -73 6 -73 9 0 11 12 9 40 -4 42 -5 44 -15 33z"/>
<path d="M2025 5570 c-8 -13 3 -50 16 -50 12 0 12 47 0 55 -5 3 -12 1 -16 -5z"/>
<path d="M2061 5540 c-8 -24 -7 -30 5 -30 9 0 14 10 14 30 0 17 -2 30 -4 30
-2 0 -9 -13 -15 -30z"/>
<path d="M2020 5470 c0 -16 5 -30 10 -30 6 0 10 -9 10 -19 0 -16 18 -31 36
-31 10 0 3 59 -8 63 -10 4 -9 8 2 16 13 10 13 12 0 21 -30 20 -50 12 -50 -20z
m50 -45 c0 -8 -4 -15 -10 -15 -5 0 -10 7 -10 15 0 8 5 15 10 15 6 0 10 -7 10
-15z"/>
<path d="M2056 5372 c-3 -6 -1 -14 5 -17 14 -9 20 -2 10 14 -6 8 -11 9 -15 3z"/>
<path d="M2040 5320 c0 -5 5 -10 10 -10 6 0 10 5 10 10 0 6 -4 10 -10 10 -5 0
-10 -4 -10 -10z"/>
<path d="M2028 5282 c18 -12 11 -110 -7 -122 -21 -12 25 -23 46 -11 17 10 17
10 1 11 -10 0 -18 5 -18 10 0 6 7 10 15 10 8 0 15 5 15 10 0 6 -5 10 -11 10
-7 0 -8 14 -4 40 4 25 3 40 -3 40 -6 0 -19 3 -29 6 -13 4 -14 3 -5 -4z"/>
<path d="M2038 5110 c13 -10 22 -22 22 -27 -1 -4 3 -9 9 -11 6 -2 11 10 11 27
0 28 -3 31 -32 31 l-33 -1 23 -19z"/>
<path d="M2047 5042 c-16 -7 -16 -9 -2 -30 22 -31 35 -28 32 8 -2 32 -3 32
-30 22z"/>
<path d="M2044 4927 c1 -29 6 -43 16 -45 11 -2 15 8 16 41 1 34 -3 43 -16 44
-14 1 -17 -7 -16 -40z"/>
<path d="M2020 4897 c0 -18 32 -68 42 -65 20 7 20 28 1 35 -10 4 -23 14 -30
22 -7 9 -13 12 -13 8z"/>
<path d="M2065 4770 c3 -5 8 -10 11 -10 2 0 4 5 4 10 0 6 -5 10 -11 10 -5 0
-7 -4 -4 -10z"/>
<path d="M2070 4730 c0 -5 5 -10 11 -10 5 0 7 5 4 10 -3 6 -8 10 -11 10 -2 0
-4 -4 -4 -10z"/>
<path d="M2036 4584 c-9 -24 -7 -28 9 -14 17 14 20 30 6 30 -5 0 -12 -7 -15
-16z"/>
<path d="M7666 3683 c-3 -8 2 -13 12 -13 10 0 26 6 36 13 17 13 16 14 -12 14
-17 0 -33 -6 -36 -14z"/>
<path d="M7695 3570 c3 -5 8 -10 11 -10 2 0 4 5 4 10 0 6 -5 10 -11 10 -5 0
-7 -4 -4 -10z"/>
<path d="M7710 3540 c0 -5 5 -10 11 -10 5 0 7 5 4 10 -3 6 -8 10 -11 10 -2 0
-4 -4 -4 -10z"/>
<path d="M7984 3395 c0 -14 4 -25 9 -25 10 0 9 38 -2 44 -5 3 -8 -5 -7 -19z"/>
<path d="M5004 3379 c-3 -6 -1 -16 5 -22 8 -8 11 -5 11 11 0 24 -5 28 -16 11z"/>
<path d="M7842 3378 c6 -17 36 -34 44 -25 4 4 -1 14 -12 22 -23 18 -37 19 -32
3z"/>
<path d="M8015 3380 c3 -5 8 -10 11 -10 2 0 4 5 4 10 0 6 -5 10 -11 10 -5 0
-7 -4 -4 -10z"/>
<path d="M7814 3369 c-3 -6 -1 -16 5 -22 8 -8 11 -5 11 11 0 24 -5 28 -16 11z"/>
<path d="M7924 3366 c-16 -18 -6 -35 18 -28 15 4 19 2 14 -7 -5 -7 -20 -10
-39 -7 -18 3 -26 3 -19 0 6 -3 12 -14 12 -25 0 -21 16 -26 23 -6 3 9 8 9 21
-2 23 -19 25 -13 11 44 -7 28 -13 43 -14 35 -1 -10 -4 -11 -9 -4 -5 9 -10 9
-18 0z"/>
<path d="M8020 3340 c0 -5 5 -10 10 -10 6 0 8 -11 4 -25 -4 -16 -2 -25 5 -25
17 0 31 43 19 58 -12 14 -38 16 -38 2z"/>
<path d="M7765 3319 c-4 -6 -4 -13 -1 -16 8 -8 36 5 36 17 0 13 -27 13 -35 -1z"/>
<path d="M7810 3310 c0 -5 5 -10 10 -10 6 0 10 5 10 10 0 6 -4 10 -10 10 -5 0
-10 -4 -10 -10z"/>
<path d="M7900 3250 c0 -5 5 -10 11 -10 5 0 7 5 4 10 -3 6 -8 10 -11 10 -2 0
-4 -4 -4 -10z"/>
<path d="M8920 3220 c0 -5 5 -10 10 -10 6 0 10 5 10 10 0 6 -4 10 -10 10 -5 0
-10 -4 -10 -10z"/>
<path d="M12355 3220 c-3 -5 -1 -10 4 -10 6 0 11 5 11 10 0 6 -2 10 -4 10 -3
0 -8 -4 -11 -10z"/>
<path d="M12408 3203 c7 -3 16 -2 19 1 4 3 -2 6 -13 5 -11 0 -14 -3 -6 -6z"/>
<path d="M12377 3184 c-16 -16 -5 -29 28 -31 19 -2 35 2 35 7 0 6 -8 10 -18
10 -10 0 -23 5 -28 10 -6 6 -13 7 -17 4z"/>
<path d="M12320 3144 c0 -8 5 -12 10 -9 6 3 10 10 10 16 0 5 -4 9 -10 9 -5 0
-10 -7 -10 -16z"/>
<path d="M12280 3140 c0 -5 5 -10 10 -10 6 0 10 5 10 10 0 6 -4 10 -10 10 -5
0 -10 -4 -10 -10z"/>
<path d="M11855 3131 c-7 -12 31 -25 45 -16 6 4 8 11 5 16 -8 12 -42 12 -50 0z"/>
<path d="M11930 3120 c-9 -6 -10 -10 -3 -10 6 0 15 5 18 10 8 12 4 12 -15 0z"/>
<path d="M12017 3063 c-14 -13 -6 -23 18 -23 14 0 25 5 25 12 0 6 -3 8 -7 5
-3 -4 -11 -2 -18 3 -7 5 -15 7 -18 3z"/>
<path d="M9790 2960 c0 -5 5 -10 10 -10 6 0 10 5 10 10 0 6 -4 10 -10 10 -5 0
-10 -4 -10 -10z"/>
<path d="M10096 2892 c-3 -6 -1 -14 5 -17 15 -10 25 3 12 16 -7 7 -13 7 -17 1z"/>
<path d="M5122 2816 c-10 -14 -31 -68 -46 -121 -15 -53 -34 -112 -42 -131 -8
-19 -10 -34 -5 -34 5 0 14 13 21 30 7 16 16 27 20 25 5 -3 23 8 41 24 18 17
36 28 40 25 5 -2 30 17 57 44 l49 49 -33 44 c-18 24 -34 50 -34 57 0 21 -48
13 -68 -12z"/>
<path d="M10480 2770 c0 -5 5 -10 11 -10 5 0 7 5 4 10 -3 6 -8 10 -11 10 -2 0
-4 -4 -4 -10z"/>
</g>
</svg>
